{"title":"William S. Burroughs. Ah Pook Is Here (1994) eng, ukr subs","uid":9550664,"size":50839690,"categoryP":"video","categoryS":"other","magnet":"?xt=urn:btih:6556771778b688586384c61b0b8bbbfde110cb33&amp;dn=William+S.+Burroughs.+Ah+Pook+Is+Here+%281994%29+eng%2C+ukr+subs&amp;tr=udp%3A%2F%2Ftracker.openbittorrent.com%3A80&amp;tr=udp%3A%2F%2Fopen.demonii.com%3A1337&amp;tr=udp%3A%2F%2Ftracker.coppersurfer.tk%3A6969&amp;tr=udp%3A%2F%2Fexodus.desync.com%3A6969","seeders":1,"leechers":0,"uploader":"orysia","files":-1,"time":1391254061,"description":" &lt;a href=&quot;http://www.imdb.com/title/tt0109055/?ref_=fn_al_tt_1&quot; rel=&quot;nofollow&quot; target=&quot;_NEW&quot;&gt;http://www.imdb.com/title/tt0109055/?ref_=fn_al_tt_1&lt;/a&gt;\n\n A disturbingly organic-looking figure speaks to us of life, politics and death as the symbol of the common man toils away.\n\nDirector: Philip Hunt\nWriter and narrator: William S. Burroughs\n\nFormat                                   : Matroska\nFormat version                           : Version 4 / Version 2\nFile size                                : 48.5 MiB\nDuration                                 : 6mn 10s\nOverall bit rate                         : 1 098 Kbps\nMovie name                               : Ah Pook Is Here*1994 /antusyrzhuk\nEncoded date                             : UTC 2014-01-31 16:39:17\nWriting application                      : mkvmerge v6.7.0 ('Back to the Ground') 32bit built on Jan  8 2014 15:03:17\nWriting library                          : libebml v1.3.0 + libmatroska v1.4.1\n\nVideo\nID                                       : 1\nFormat                                   : MPEG-4 Visual\nFormat settings, BVOP                    : Yes\nFormat settings, QPel                    : No\nFormat settings, GMC                     : No warppoints\nFormat settings, Matrix                  : Default (H.263)\nCodec ID                                 : V_MS/VFW/FOURCC / DX50\nCodec ID/Hint                            : DivX 5\nDuration                                 : 6mn 10s\nBit rate                                 : 948 Kbps\nWidth                                    : 720 pixels\nHeight                                   : 576 pixels\nDisplay aspect ratio                     : 5:4\nFrame rate mode                          : Constant\nFrame rate                               : 25.000 fps\nStandard                                 : PAL\nColor space                              : YUV\nChroma subsampling                       : 4:2:0\nBit depth                                : 8 bits\nScan type                                : Progressive\nCompression mode                         : Lossy\nBits/(Pixel*Frame)                       : 0.091\nStream size                              : 41.9 MiB (86%)\nTitle                                    : http://cinemasterpiece(dot)wordpress(dot)com/\nWriting library                          : DivX 5.0.5 Beta(Tahanea) (UTC 2003-01)\nDefault                                  : Yes\nForced                                   : No\n\nAudio\nID                                       : 2\nFormat                                   : MPEG Audio\nFormat version                           : Version 1\nFormat profile                           : Layer 3\nCodec ID                                 : A_MPEG/L3\nCodec ID/Hint                            : MP3\nDuration                                 : 6mn 10s\nBit rate mode                            : Constant\nBit rate                                 : 128 Kbps\nChannel(s)                               : 2 channels\nSampling rate                            : 48.0 KHz\nCompression mode                         : Lossy\nDelay relative to video                  : 10ms\nStream size                              : 5.65 MiB (12%)\nTitle                                    : http://cinemasterpiece(dot)wordpress(dot)com/\nLanguage                                 : English\nDefault                                  : Yes\nForced                                   : No\n\nText #1\nID                                       : 3\nFormat                                   : UTF-8\nCodec ID                                 : S_TEXT/UTF8\nCodec ID/Info                            : UTF-8 Plain Text\nLanguage                                 : Ukrainian\nDefault                                  : Yes\nForced                                   : No\n\nText #2\nID                                       : 4\nFormat                                   : UTF-8\nCodec ID                                 : S_TEXT/UTF8\nCodec ID/Info                            : UTF-8 Plain Text\nLanguage                                 : English\nDefault                                  : No\nForced                                   : No\n &lt;a href=&quot;\nhttp://imageshack.com/a/img856/1118/w52p.png&quot; rel=&quot;nofollow&quot; target=&quot;_NEW&quot;&gt;\nhttp://imageshack.com/a/img856/1118/w52p.png&lt;/a&gt;","torrent":{"xt":"urn:btih:6556771778b688586384c61b0b8bbbfde110cb33","amp;dn":"William+S.+Burroughs.+Ah+Pook+Is+Here+%281994%29+eng%2C+ukr+subs","amp;tr":["udp%3A%2F%2Ftracker.openbittorrent.com%3A80","udp%3A%2F%2Fopen.demonii.com%3A1337","udp%3A%2F%2Ftracker.coppersurfer.tk%3A6969","udp%3A%2F%2Fexodus.desync.com%3A6969"],"infoHash":"6556771778b688586384c61b0b8bbbfde110cb33","infoHashBuffer":{"type":"Buffer","data":[101,86,119,23,120,182,136,88,99,132,198,27,11,139,187,253,225,16,203,51]},"announce":[],"urlList":[]}}